<?xml version="1.0" encoding="UTF-8"?>
<svg xmlns="http://www.w3.org/2000/svg" viewBox="0 0 560 560" width="560" height="560">
  <!-- 9-col play triangle 560x560, green-to-yellow gradient, blue EKG polyline -->
  <rect x="150" y="30" width="30" height="30" fill="#789478"/>
  <rect x="150" y="60" width="30" height="30" fill="#7B9778"/>
  <rect x="150" y="90" width="30" height="30" fill="#7F9B78"/>
  <rect x="150" y="120" width="30" height="30" fill="#839F78"/>
  <rect x="150" y="150" width="30" height="30" fill="#86A378"/>
  <rect x="150" y="180" width="30" height="30" fill="#8AA778"/>
  <rect x="150" y="210" width="30" height="30" fill="#8EAB78"/>
  <rect x="150" y="240" width="30" height="30" fill="#91AF78"/>
  <rect x="150" y="270" width="30" height="30" fill="#95B378"/>
  <rect x="150" y="300" width="30" height="30" fill="#99B678"/>
  <rect x="150" y="330" width="30" height="30" fill="#9CBA78"/>
  <rect x="150" y="360" width="30" height="30" fill="#A0BE78"/>
  <rect x="150" y="390" width="30" height="30" fill="#A4C278"/>
  <rect x="150" y="420" width="30" height="30" fill="#A7C678"/>
  <rect x="150" y="450" width="30" height="30" fill="#ABCA78"/>
  <rect x="150" y="480" width="30" height="30" fill="#AFCE78"/>
  <rect x="150" y="510" width="30" height="30" fill="#B3D278"/>
  <rect x="180" y="60" width="30" height="30" fill="#7B9778"/>
  <rect x="180" y="90" width="30" height="30" fill="#7F9B78"/>
  <rect x="180" y="120" width="30" height="30" fill="#839F78"/>
  <rect x="180" y="150" width="30" height="30" fill="#86A378"/>
  <rect x="180" y="180" width="30" height="30" fill="#8AA778"/>
  <rect x="180" y="210" width="30" height="30" fill="#8EAB78"/>
  <rect x="180" y="240" width="30" height="30" fill="#91AF78"/>
  <rect x="180" y="270" width="30" height="30" fill="#95B378"/>
  <rect x="180" y="300" width="30" height="30" fill="#99B678"/>
  <rect x="180" y="330" width="30" height="30" fill="#9CBA78"/>
  <rect x="180" y="360" width="30" height="30" fill="#A0BE78"/>
  <rect x="180" y="390" width="30" height="30" fill="#A4C278"/>
  <rect x="180" y="420" width="30" height="30" fill="#A7C678"/>
  <rect x="180" y="450" width="30" height="30" fill="#ABCA78"/>
  <rect x="180" y="480" width="30" height="30" fill="#AFCE78"/>
  <rect x="210" y="90" width="30" height="30" fill="#7F9B78"/>
  <rect x="210" y="120" width="30" height="30" fill="#839F78"/>
  <rect x="210" y="150" width="30" height="30" fill="#86A378"/>
  <rect x="210" y="180" width="30" height="30" fill="#8AA778"/>
  <rect x="210" y="210" width="30" height="30" fill="#8EAB78"/>
  <rect x="210" y="240" width="30" height="30" fill="#91AF78"/>
  <rect x="210" y="270" width="30" height="30" fill="#95B378"/>
  <rect x="210" y="300" width="30" height="30" fill="#99B678"/>
  <rect x="210" y="330" width="30" height="30" fill="#9CBA78"/>
  <rect x="210" y="360" width="30" height="30" fill="#A0BE78"/>
  <rect x="210" y="390" width="30" height="30" fill="#A4C278"/>
  <rect x="210" y="420" width="30" height="30" fill="#A7C678"/>
  <rect x="210" y="450" width="30" height="30" fill="#ABCA78"/>
  <rect x="240" y="120" width="30" height="30" fill="#839F78"/>
  <rect x="240" y="150" width="30" height="30" fill="#86A378"/>
  <rect x="240" y="180" width="30" height="30" fill="#8AA778"/>
  <rect x="240" y="210" width="30" height="30" fill="#8EAB78"/>
  <rect x="240" y="240" width="30" height="30" fill="#91AF78"/>
  <rect x="240" y="270" width="30" height="30" fill="#95B378"/>
  <rect x="240" y="300" width="30" height="30" fill="#99B678"/>
  <rect x="240" y="330" width="30" height="30" fill="#9CBA78"/>
  <rect x="240" y="360" width="30" height="30" fill="#A0BE78"/>
  <rect x="240" y="390" width="30" height="30" fill="#A4C278"/>
  <rect x="240" y="420" width="30" height="30" fill="#A7C678"/>
  <rect x="270" y="150" width="30" height="30" fill="#86A378"/>
  <rect x="270" y="180" width="30" height="30" fill="#8AA778"/>
  <rect x="270" y="210" width="30" height="30" fill="#8EAB78"/>
  <rect x="270" y="240" width="30" height="30" fill="#91AF78"/>
  <rect x="270" y="270" width="30" height="30" fill="#95B378"/>
  <rect x="270" y="300" width="30" height="30" fill="#99B678"/>
  <rect x="270" y="330" width="30" height="30" fill="#9CBA78"/>
  <rect x="270" y="360" width="30" height="30" fill="#A0BE78"/>
  <rect x="270" y="390" width="30" height="30" fill="#A4C278"/>
  <rect x="300" y="180" width="30" height="30" fill="#8AA778"/>
  <rect x="300" y="210" width="30" height="30" fill="#8EAB78"/>
  <rect x="300" y="240" width="30" height="30" fill="#91AF78"/>
  <rect x="300" y="270" width="30" height="30" fill="#95B378"/>
  <rect x="300" y="300" width="30" height="30" fill="#99B678"/>
  <rect x="300" y="330" width="30" height="30" fill="#9CBA78"/>
  <rect x="300" y="360" width="30" height="30" fill="#A0BE78"/>
  <rect x="330" y="210" width="30" height="30" fill="#8EAB78"/>
  <rect x="330" y="240" width="30" height="30" fill="#91AF78"/>
  <rect x="330" y="270" width="30" height="30" fill="#95B378"/>
  <rect x="330" y="300" width="30" height="30" fill="#99B678"/>
  <rect x="330" y="330" width="30" height="30" fill="#9CBA78"/>
  <rect x="360" y="240" width="30" height="30" fill="#91AF78"/>
  <rect x="360" y="270" width="30" height="30" fill="#95B378"/>
  <rect x="360" y="300" width="30" height="30" fill="#99B678"/>
  <rect x="390" y="270" width="30" height="30" fill="#95B378"/>
  <polyline points="150,300 190,300 210,280 230,250 250,300 260,320 270,180 280,400 300,300 350,270 380,300" fill="none" stroke="#7882B3" stroke-width="8" stroke-linejoin="round" stroke-linecap="round"/>
</svg>
